<?xml version="1.0" standalone="no"?><!DOCTYPE svg PUBLIC "-//W3C//DTD SVG 1.1//EN" "http://www.w3.org/Graphics/SVG/1.1/DTD/svg11.dtd"><svg t="1768703044170" class="icon" viewBox="0 0 1088 1024" version="1.1" xmlns="http://www.w3.org/2000/svg" p-id="13109" xmlns:xlink="http://www.w3.org/1999/xlink" width="17" height="16"><path d="M849.344 511.936h61.568c0-220.864-178.112-399.936-397.76-399.936a397.056 397.056 0 0 0-338.624 190.08V169.152h-61.376v198.784a32 32 0 0 0 32 32h197.568v-61.696H224.512a335.744 335.744 0 0 1 288.64-164.736c185.408 0 336.192 151.232 336.192 338.432z m-672.384 0c0 187.2 150.848 338.368 336.192 338.368a335.744 335.744 0 0 0 288.64-164.736H683.52v-61.696h197.568a32 32 0 0 1 32 32v198.848h-61.376v-132.928a397.056 397.056 0 0 1-338.56 190.08c-219.712 0-397.76-179.072-397.76-400h61.44z" fill="#2982FF" fill-opacity=".9" p-id="13110"></path></svg>