<?xml version="1.0" standalone="no"?><!DOCTYPE svg PUBLIC "-//W3C//DTD SVG 1.1//EN" "http://www.w3.org/Graphics/SVG/1.1/DTD/svg11.dtd"><svg t="1768706718322" class="icon" viewBox="0 0 1024 1024" version="1.1" xmlns="http://www.w3.org/2000/svg" p-id="26988" xmlns:xlink="http://www.w3.org/1999/xlink" width="16" height="16"><path d="M640 298.666667a85.333333 85.333333 0 0 1 85.333333 85.333333v341.333333a85.333333 85.333333 0 0 1-85.333333 85.333334H298.666667a85.333333 85.333333 0 0 1-85.333334-85.333334V384a85.333333 85.333333 0 0 1 85.333334-85.333333h341.333333z m0 42.666666H298.666667a42.666667 42.666667 0 0 0-42.368 37.674667L256 384v341.333333a42.666667 42.666667 0 0 0 37.674667 42.368L298.666667 768h341.333333a42.666667 42.666667 0 0 0 42.368-37.674667L682.666667 725.333333V384a42.666667 42.666667 0 0 0-37.674667-42.368L640 341.333333z" p-id="26989" fill="#7AB4FF"></path><path d="M725.333333 213.333333a85.333333 85.333333 0 0 1 85.333334 85.333334v341.333333a85.333333 85.333333 0 0 1-85.333334 85.333333v-42.666666a42.666667 42.666667 0 0 0 42.368-37.674667L768 640V298.666667a42.666667 42.666667 0 0 0-37.674667-42.368L725.333333 256H384a42.666667 42.666667 0 0 0-42.368 37.674667L341.333333 298.666667H298.666667a85.333333 85.333333 0 0 1 85.333333-85.333334h341.333333z" p-id="26990" fill="#7AB4FF"></path></svg>