<?xml version="1.0" standalone="no"?><!DOCTYPE svg PUBLIC "-//W3C//DTD SVG 1.1//EN" "http://www.w3.org/Graphics/SVG/1.1/DTD/svg11.dtd"><svg t="1768702279507" class="icon" viewBox="0 0 1024 1024" version="1.1" xmlns="http://www.w3.org/2000/svg" p-id="22800" xmlns:xlink="http://www.w3.org/1999/xlink" width="16" height="16"><path d="M512.893346 1.823687c-281.791567 0-511.07016 229.242599-511.07016 511.106154 0 281.792567 229.278593 511.07016 511.07016 511.07016 281.863555 0 511.106154-229.277593 511.106154-511.07016C1024.0005 231.065286 794.719908 1.823687 512.893346 1.823687zM746.333224 563.982066 563.909578 563.982066l0 182.313665c0 28.135164-22.770086 51.126213-51.015232 51.126213-28.136164 0-50.979238-22.990049-50.979238-51.126213L461.915108 563.982066 279.454469 563.982066c-28.208152 0-51.089219-22.954055-51.089219-51.089219 0-28.208152 22.880067-51.052225 51.089219-51.052225l182.45964 0L461.914109 279.453969c0-28.209152 22.844074-51.052225 50.979238-51.052225 28.280139 0 51.015232 22.843074 51.015232 51.052225l0 182.386652 182.423646 0c28.244146 0 51.125213 22.844074 51.125213 51.052225C797.494431 541.065004 774.57737 563.982066 746.333224 563.982066z" fill="#7AB4FF" p-id="22801"></path></svg>